{
  "accessors": [
    {
      "bufferView": 0,
      "componentType": 5126,
      "count": 3575,
      "type": "VEC2",
      "max": [
        0.9999003,
        -0.0221377648
      ],
      "min": [
        0.0006585993,
        -0.996773958
      ],
      "byteOffset": 0
    },
    {
      "bufferView": 1,
      "componentType": 5126,
      "count": 3575,
      "type": "VEC3",
      "max": [
        1,
        1,
        0.9999782
      ],
      "min": [
        -1,
        -1,
        -0.9980823
      ],
      "byteOffset": 0
    },
    {
      "bufferView": 2,
      "componentType": 5126,
      "count": 3575,
      "type": "VEC4",
      "max": [
        1,
        0.9999976,
        1,
        1
      ],
      "min": [
        -0.9991289,
        -0.999907851,
        -1,
        1
      ],
      "byteOffset": 0
    },
    {
      "bufferView": 3,
      "componentType": 5126,
      "count": 3575,
      "type": "VEC3",
      "max": [
        0.009921154,
        0.00977163,
        0.0100762453
      ],
      "min": [
        -0.009921154,
        -0.00977163,
        -0.0100762453
      ],
      "byteOffset": 0
    },
    {
      "bufferView": 4,
      "componentType": 5123,
      "count": 18108,
      "type": "SCALAR",
      "max": [
        3574
      ],
      "min": [
        0
      ],
      "byteOffset": 0
    }
  ],
  "asset": {
    "generator": "glTF Tools for Unity",
    "version": "2.0"
  },
  "bufferViews": [
    {
      "buffer": 0,
      "byteOffset": 0,
      "byteLength": 28600,
      "byteStride": 8,
      "target": 34962
    },
    {
      "buffer": 0,
      "byteOffset": 28600,
      "byteLength": 42900,
      "byteStride": 12,
      "target": 34962
    },
    {
      "buffer": 0,
      "byteOffset": 71500,
      "byteLength": 57200,
      "byteStride": 16,
      "target": 34962
    },
    {
      "buffer": 0,
      "byteOffset": 128700,
      "byteLength": 42900,
      "byteStride": 12,
      "target": 34962
    },
    {
      "buffer": 0,
      "byteOffset": 171600,
      "byteLength": 36216,
      "target": 34963
    }
  ],
  "buffers": [
    {
      "name": "BoomBox",
      "byteLength": 207816,
      "uri": "BoomBox.bin"
    }
  ],
  "images": [
    {
      "mimeType": "image/png",
      "uri": "BoomBox0.png"
    },
    {
      "mimeType": "image/png",
      "uri": "BoomBox1.png"
    },
    {
      "mimeType": "image/png",
      "uri": "BoomBox2.png"
    },
    {
      "mimeType": "image/png",
      "uri": "BoomBox3.png"
    }
  ],
  "meshes": [
    {
      "primitives": [
        {
          "attributes": {
            "TEXCOORD_0": 0,
            "NORMAL": 1,
            "TANGENT": 2,
            "POSITION": 3
          },
          "indices": 4,
          "material": 0,
          "mode": 4
        }
      ],
      "name": "BoomBox"
    }
  ],
  "materials": [
    {
      "pbrMetallicRoughness": {
        "baseColorTexture": {
          "index": 0,
          "texCoord": 0
        },
        "metallicRoughnessTexture": {
          "index": 1,
          "texCoord": 0
        },
        "baseColorFactor": [
          1,
          1,
          1,
          1
        ],
        "metallicFactor": 1,
        "roughnessFactor": 1
      },
      "normalTexture": {
        "index": 2,
        "texCoord": 0
      },
      "occlusionTexture": {
        "index": 1,
        "texCoord": 0
      },
      "emissiveFactor": [
        1,
        1,
        1
      ],
      "emissiveTexture": {
        "index": 3,
        "texCoord": 0
      },
      "name": "BoomBox_Mat",
      "alphaMode": "OPAQUE",
      "doubleSided": false
    }
  ],
  "nodes": [
    {
      "mesh": 0,
      "name": "BoomBox"
    }
  ],
  "scene": 0,
  "scenes": [
    {
      "nodes": [
        0
      ]
    }
  ],
  "textures": [
    {
      "source": 0
    },
    {
      "source": 1
    },
    {
      "source": 2
    },
    {
      "source": 3
    }
  ]
}
