{"accessors":[{"bufferView":0,"componentType":5126,"count":3575,"type":"VEC2","max":[0.9999003,-0.0221377648],"min":[0.0006585993,-0.996773958],"byteOffset":0},{"bufferView":1,"componentType":5126,"count":3575,"type":"VEC3","max":[1,1,0.9999782],"min":[-1,-1,-0.9980823],"byteOffset":0},{"bufferView":2,"componentType":5126,"count":3575,"type":"VEC4","max":[1,0.9999976,1,1],"min":[-0.9991289,-0.999907851,-1,1],"byteOffset":0},{"bufferView":3,"componentType":5126,"count":3575,"type":"VEC3","max":[0.009921154,0.00977163,0.0100762453],"min":[-0.009921154,-0.00977163,-0.0100762453],"byteOffset":0},{"bufferView":4,"componentType":5123,"count":18108,"type":"SCALAR","max":[3574],"min":[0],"byteOffset":0}],"asset":{"generator":"glTF Tools for Unity","version":"2.0"},"bufferViews":[{"buffer":0,"byteOffset":0,"byteLength":28600,"byteStride":8,"target":34962},{"buffer":0,"byteOffset":28600,"byteLength":42900,"byteStride":12,"target":34962},{"buffer":0,"byteOffset":71500,"byteLength":57200,"byteStride":16,"target":34962},{"buffer":0,"byteOffset":128700,"byteLength":42900,"byteStride":12,"target":34962},{"buffer":0,"byteOffset":171600,"byteLength":36216,"target":34963}],"buffers":[{"name":"buffer","byteLength":207816,"uri":"buffer.bin"},{"name":"image3.astc","byteLength":48972,"uri":"image3.astc.bin"},{"name":"image3.bc7","byteLength":50586,"uri":"image3.bc7.bin"},{"name":"image3.dxt","byteLength":10686,"uri":"image3.dxt.bin"},{"name":"image3.pvrtc","byteLength":21741,"uri":"image3.pvrtc.bin"},{"name":"image3.etc1","byteLength":22360,"uri":"image3.etc1.bin"},{"name":"image2.astc","byteLength":1343541,"uri":"image2.astc.bin"},{"name":"image2.bc7","byteLength":1394847,"uri":"image2.bc7.bin"},{"name":"image2.dxt","byteLength":533962,"uri":"image2.dxt.bin"},{"name":"image2.pvrtc","byteLength":392115,"uri":"image2.pvrtc.bin"},{"name":"image2.etc1","byteLength":218336,"uri":"image2.etc1.bin"},{"name":"image0.astc","byteLength":1797123,"uri":"image0.astc.bin"},{"name":"image0.bc7","byteLength":1835240,"uri":"image0.bc7.bin"},{"name":"image0.dxt","byteLength":759243,"uri":"image0.dxt.bin"},{"name":"image0.pvrtc","byteLength":460251,"uri":"image0.pvrtc.bin"},{"name":"image0.etc1","byteLength":320218,"uri":"image0.etc1.bin"},{"name":"image1.astc","byteLength":3227256,"uri":"image1.astc.bin"},{"name":"image1.bc7","byteLength":3099113,"uri":"image1.bc7.bin"},{"name":"image1.dxt","byteLength":1379848,"uri":"image1.dxt.bin"},{"name":"image1.pvrtc","byteLength":1086660,"uri":"image1.pvrtc.bin"},{"name":"image1.etc1","byteLength":912384,"uri":"image1.etc1.bin"}],"images":[{"mimeType":"image/png","uri":"image0.png"},{"mimeType":"image/png","uri":"image1.png"},{"mimeType":"image/png","uri":"image2.png"},{"mimeType":"image/png","uri":"image3.png"}],"meshes":[{"primitives":[{"attributes":{"TEXCOORD_0":0,"NORMAL":1,"TANGENT":2,"POSITION":3},"indices":4,"material":0,"mode":4}],"name":"BoomBox"}],"materials":[{"pbrMetallicRoughness":{"baseColorTexture":{"index":0,"texCoord":0},"metallicRoughnessTexture":{"index":1,"texCoord":0},"baseColorFactor":[1,1,1,1],"metallicFactor":1,"roughnessFactor":1},"normalTexture":{"index":2,"texCoord":0},"occlusionTexture":{"index":1,"texCoord":0},"emissiveFactor":[1,1,1],"emissiveTexture":{"index":3,"texCoord":0},"name":"BoomBox_Mat","alphaMode":"OPAQUE","doubleSided":false}],"nodes":[{"mesh":0,"name":"BoomBox"}],"scene":0,"scenes":[{"nodes":[0]}],"textures":[{"source":0,"extensions":{"EXT_gpu_compressed_texture":{"astc":11,"bc7":12,"dxt":13,"pvrtc":14,"etc1":15,"width":2048,"height":2048,"hasAlpha":0,"compress":1}}},{"source":1,"extensions":{"EXT_gpu_compressed_texture":{"astc":16,"bc7":17,"dxt":18,"pvrtc":19,"etc1":20,"width":2048,"height":2048,"hasAlpha":0,"compress":1}}},{"source":2,"extensions":{"EXT_gpu_compressed_texture":{"astc":6,"bc7":7,"dxt":8,"pvrtc":9,"etc1":10,"width":2048,"height":2048,"hasAlpha":0,"compress":1}}},{"source":3,"extensions":{"EXT_gpu_compressed_texture":{"astc":1,"bc7":2,"dxt":3,"pvrtc":4,"etc1":5,"width":2048,"height":2048,"hasAlpha":0,"compress":1}}}]}